{"title":"Wale Ft. Nicki Minaj &amp; Juicy J - Clappers [Explicit] 1080p [","uid":8885837,"size":215324911,"categoryP":"video","categoryS":"music_videos","magnet":"?xt=urn:btih:4b1b15f8a9d82b18a0faf489d9bf7db0573854b8&amp;dn=Wale+Ft.+Nicki+Minaj+%26amp%3B+Juicy+J+-+Clappers+%5BExplicit%5D+1080p+%5B&amp;tr=udp%3A%2F%2Ftracker.openbittorrent.com%3A80&amp;tr=udp%3A%2F%2Fopen.demonii.com%3A1337&amp;tr=udp%3A%2F%2Ftracker.coppersurfer.tk%3A6969&amp;tr=udp%3A%2F%2Fexodus.desync.com%3A6969","seeders":9,"leechers":1,"uploader":"Sbyky","files":-1,"time":1378455695,"description":"[IMG]http://yuq.me/users/18/139/B58aEZWkn0.png[/IMG]\n\nGeneral\nComplete name                            : Wale Ft. Nicki Minaj &amp; Juicy J - Clappers [Explicit] 1080p [Sbyky].MP4\nFormat                                   : MPEG-4\nFormat profile                           : Base Media / Version 2\nCodec ID                                 : mp42\nFile size                                : 205 MiB\nDuration                                 : 5mn 34s\nOverall bit rate mode                    : Variable\nOverall bit rate                         : 5 151 Kbps\nEncoded date                             : UTC 2013-09-02 15:25:09\nTagged date                              : UTC 2013-09-02 15:25:09\n\nVideo\nID                                       : 1\nFormat                                   : AVC\nFormat/Info                              : Advanced Video Codec\nFormat profile                           : &lt;a class=&quot;__cf_email__&quot; href=&quot;/cdn-cgi/l/email-protection&quot; data-cfemail=&quot;d59dbcb2bd9599e1fbe5&quot;&gt;[email&amp;#160;protected]&lt;/a&gt;&lt;script cf-hash='f9e31' type=&quot;text/javascript&quot;&gt;\n/* &lt;![CDATA[ */!function(){try{var t=&quot;currentScript&quot;in document?document.currentScript:function(){for(var t=document.getElementsByTagName(&quot;script&quot;),e=t.length;e--;)if(t[e].getAttribute(&quot;cf-hash&quot;))return t[e]}();if(t&amp;&amp;t.previousSibling){var e,r,n,i,c=t.previousSibling,a=c.getAttribute(&quot;data-cfemail&quot;);if(a){for(e=&quot;&quot;,r=parseInt(a.substr(0,2),16),n=2;a.length-n;n+=2)i=parseInt(a.substr(n,2),16)^r,e+=String.fromCharCode(i);e=document.createTextNode(e),c.parentNode.replaceChild(e,c)}}}catch(u){}}();/* ]]&gt; */&lt;/script&gt;\nFormat settings, CABAC                   : Yes\nFormat settings, ReFrames                : 1 frame\nFormat settings, GOP                     : M=1, N=48\nCodec ID                                 : avc1\nCodec ID/Info                            : Advanced Video Coding\nDuration                                 : 5mn 34s\nBit rate                                 : 4 957 Kbps\nMaximum bit rate                         : 12.2 Mbps\nWidth                                    : 1 920 pixels\nHeight                                   : 1 080 pixels\nDisplay aspect ratio                     : 16:9\nFrame rate mode                          : Constant\nFrame rate                               : 23.976 fps\nColor space                              : YUV\nChroma subsampling                       : 4:2:0\nBit depth                                : 8 bits\nScan type                                : Progressive\nBits/(Pixel*Frame)                       : 0.100\nStream size                              : 198 MiB (96%)\nTagged date                              : UTC 2013-09-02 15:26:29\n\nAudio\nID                                       : 2\nFormat                                   : AAC\nFormat/Info                              : Advanced Audio Codec\nFormat profile                           : LC\nCodec ID                                 : 40\nDuration                                 : 5mn 34s\nBit rate mode                            : Variable\nBit rate                                 : 192 Kbps\nMaximum bit rate                         : 201 Kbps\nChannel(s)                               : 2 channels\nChannel positions                        : Front: L R\nSampling rate                            : 44.1 KHz\nCompression mode                         : Lossy\nStream size                              : 7.65 MiB (4%)\nTitle                                    : IsoMedia File Produced by Google, 5-11-2011\nEncoded date                             : UTC 2013-09-02 15:26:10\nTagged date                              : UTC 2013-09-02 15:26:29\n\nShared By Sbyky\n[IMG]http://yuq.me/users/18/139/0aq32UMZvX.gif[/IMG]\n[IMG]http://yuq.me/users/18/139/bQg62viaEG.gif[/IMG]","torrent":{"xt":"urn:btih:4b1b15f8a9d82b18a0faf489d9bf7db0573854b8","amp;dn":"Wale+Ft.+Nicki+Minaj+%26amp%3B+Juicy+J+-+Clappers+%5BExplicit%5D+1080p+%5B","amp;tr":["udp%3A%2F%2Ftracker.openbittorrent.com%3A80","udp%3A%2F%2Fopen.demonii.com%3A1337","udp%3A%2F%2Ftracker.coppersurfer.tk%3A6969","udp%3A%2F%2Fexodus.desync.com%3A6969"],"infoHash":"4b1b15f8a9d82b18a0faf489d9bf7db0573854b8","infoHashBuffer":{"type":"Buffer","data":[75,27,21,248,169,216,43,24,160,250,244,137,217,191,125,176,87,56,84,184]},"announce":[],"urlList":[]}}